<?xml version="1.0" encoding="UTF-8" standalone="no"?>
<!DOCTYPE svg PUBLIC "-//W3C//DTD SVG 1.1//EN" "http://www.w3.org/Graphics/SVG/1.1/DTD/svg11.dtd">
<svg width="100%" height="100%" viewBox="0 0 256 256" version="1.1" xmlns="http://www.w3.org/2000/svg" xmlns:xlink="http://www.w3.org/1999/xlink" xml:space="preserve" xmlns:serif="http://www.serif.com/" style="fill-rule:evenodd;clip-rule:evenodd;stroke-linejoin:round;stroke-miterlimit:2;">
    <path d="M24.428,189.371C22.016,190.711 18.969,189.841 17.629,187.428C16.289,185.016 17.159,181.969 19.572,180.629L24.747,177.754C27.159,176.414 30.206,177.284 31.546,179.697C32.886,182.109 32.016,185.156 29.603,186.496L24.428,189.371ZM60.653,169.246C58.241,170.586 55.194,169.715 53.854,167.303C52.514,164.891 53.385,161.844 55.797,160.504L66.147,154.754C68.559,153.414 71.606,154.284 72.946,156.697C74.286,159.109 73.416,162.156 71.003,163.496L60.653,169.246ZM102.053,146.246C99.641,147.586 96.594,146.716 95.254,144.303C93.914,141.891 94.784,138.844 97.197,137.504L107.547,131.754C109.959,130.414 113.006,131.284 114.346,133.697C115.686,136.109 114.816,139.156 112.403,140.496L102.053,146.246ZM143.453,123.246C141.041,124.586 137.994,123.716 136.654,121.303C135.314,118.891 136.184,115.844 138.597,114.504L148.947,108.754C151.359,107.414 154.406,108.285 155.746,110.697C157.086,113.109 156.215,116.156 153.803,117.496L143.453,123.246ZM184.853,100.246C182.441,101.586 179.395,100.715 178.054,98.303C176.714,95.891 177.585,92.844 179.997,91.504L190.347,85.754C192.759,84.414 195.806,85.284 197.146,87.697C198.486,90.109 197.616,93.156 195.203,94.496L184.853,100.246ZM226.253,77.246C223.841,78.586 220.794,77.716 219.454,75.303C218.114,72.891 218.984,69.844 221.397,68.504L226.572,65.629C228.984,64.289 232.031,65.159 233.371,67.572C234.711,69.984 233.841,73.031 231.428,74.371L226.253,77.246Z" style="fill:white;"/>
</svg>
